<svg version="1.0" preserveAspectRatio="none" viewBox="14.25 34.499999172 348 306.749992638" zoomAndPan="magnify" xmlns:xlink="http://www.w3.org/1999/xlink" xmlns="http://www.w3.org/2000/svg" width="348" height="306.749992638"><defs><clipPath id="5da0884075"><path clip-rule="nonzero" d="M 16.300781 37 L 359 37 L 359 338.835938 L 16.300781 338.835938 Z M 16.300781 37"/></clipPath><clipPath id="ae76258ada"><path clip-rule="nonzero" d="M 258.554688 334.054688 C 256.574219 334.542969 255.042969 335.191406 253.511719 335.351562 C 244.867188 336 236.3125 336.648438 227.664062 337.21875 C 223.253906 337.460938 218.839844 337.703125 214.425781 337.785156 C 209.652344 337.945312 204.882812 338.191406 200.199219 338.027344 C 195.695312 337.945312 191.191406 337.703125 186.871094 336.972656 C 181.285156 336.082031 175.613281 336.082031 170.117188 335.273438 C 155.800781 333.164062 141.210938 333.730469 126.800781 332.839844 C 118.695312 332.351562 110.589844 331.21875 102.484375 330.246094 C 93.300781 329.191406 84.113281 327.976562 74.839844 326.839844 C 68.082031 326.03125 61.238281 325.21875 54.484375 324.410156 C 54.304688 324.410156 54.125 324.328125 53.945312 324.328125 C 48.269531 322.140625 42.238281 320.4375 37.015625 317.601562 C 28.1875 312.738281 24.40625 304.957031 24.046875 295.796875 C 23.957031 292.632812 23.503906 289.554688 23.503906 286.394531 C 23.59375 282.015625 23.957031 277.71875 24.226562 273.421875 C 24.945312 260.617188 25.304688 247.808594 24.226562 235 C 23.234375 223.492188 22.335938 212.0625 21.34375 200.550781 C 20.714844 193.175781 19.902344 185.878906 19.363281 178.503906 C 19.003906 173.640625 19.09375 168.695312 18.730469 163.832031 C 18.550781 161.074219 17.5625 158.398438 17.472656 155.644531 C 17.109375 148.996094 17.019531 142.269531 16.839844 135.539062 C 16.75 132.945312 16.300781 130.351562 16.390625 127.757812 C 16.480469 123.707031 17.019531 119.652344 17.109375 115.601562 C 17.199219 110.898438 16.660156 106.195312 16.839844 101.578125 C 16.839844 97.117188 17.472656 92.742188 18.101562 88.28125 C 18.28125 86.742188 19.542969 85.363281 19.902344 83.824219 C 21.433594 76.207031 23.054688 68.585938 27.015625 61.535156 C 27.917969 59.992188 29.359375 58.617188 30.710938 57.398438 C 31.160156 56.992188 32.242188 57.238281 32.511719 57.238281 C 33.140625 56.183594 33.5 55.128906 34.222656 54.644531 C 38.09375 51.96875 42.148438 50.023438 47.191406 49.535156 C 50.972656 49.132812 54.664062 47.671875 58.449219 46.863281 C 63.039062 45.890625 67.632812 44.753906 72.40625 44.1875 C 76.730469 43.699219 80.871094 42.648438 85.285156 42.320312 C 89.789062 41.996094 94.289062 41.023438 98.882812 40.699219 C 111.3125 39.890625 123.828125 39.324219 136.257812 38.675781 C 139.320312 38.511719 142.382812 38.675781 145.441406 38.753906 C 146.972656 38.835938 148.503906 39.160156 150.125 39.324219 C 150.847656 39.402344 151.566406 39.160156 152.289062 39.160156 C 154.449219 39.160156 156.699219 39.160156 158.863281 39.078125 C 163.003906 38.917969 167.238281 38.511719 171.378906 38.511719 C 175.433594 38.511719 179.484375 38.753906 183.539062 38.917969 L 186.78125 38.917969 C 191.734375 38.753906 196.597656 38.753906 201.550781 38.511719 C 206.320312 38.269531 211.003906 37.703125 215.777344 37.457031 C 218.03125 37.296875 220.371094 37.296875 222.621094 37.703125 C 226.042969 38.269531 229.285156 38.59375 232.707031 37.703125 C 233.96875 37.378906 235.589844 37.945312 237.03125 38.105469 C 237.660156 38.1875 238.382812 38.351562 238.742188 38.105469 C 241.175781 36.484375 243.425781 36.890625 245.765625 38.269531 C 246.039062 38.429688 246.757812 38.027344 247.296875 38.027344 C 249.460938 38.027344 251.621094 38.027344 253.871094 38.105469 C 255.492188 38.1875 257.023438 38.675781 258.644531 38.835938 C 262.15625 39.242188 265.761719 39.890625 269.363281 39.890625 C 276.117188 39.972656 282.871094 40.214844 289.535156 41.511719 C 295.75 42.726562 302.144531 42.726562 308.449219 43.699219 C 312.230469 44.269531 316.101562 45.320312 319.34375 47.023438 C 322.855469 48.808594 325.558594 51.726562 328.710938 54.15625 C 329.882812 55.046875 331.59375 55.695312 332.402344 56.832031 C 334.746094 59.914062 336.816406 63.15625 338.886719 66.398438 C 340.417969 68.746094 341.949219 71.179688 343.121094 73.609375 C 344.378906 76.449219 345.371094 79.367188 346.363281 82.367188 C 347.894531 87.066406 349.695312 91.769531 350.683594 96.632812 C 352.125 103.441406 352.847656 110.414062 353.925781 117.300781 C 354.285156 119.570312 354.738281 121.839844 354.917969 124.113281 C 355.457031 130.597656 355.816406 137 356.269531 143.484375 C 356.898438 151.507812 357.800781 159.453125 358.25 167.476562 C 358.699219 175.179688 359.023438 182.960938 358.863281 190.742188 C 358.609375 203.710938 357.890625 216.601562 357.167969 229.570312 C 356.71875 237.59375 356.085938 245.539062 355.1875 253.484375 C 354.285156 261.425781 352.9375 269.289062 351.945312 277.234375 C 351.226562 282.746094 351.042969 288.257812 350.234375 293.6875 C 349.511719 298.632812 346.8125 303.011719 343.210938 306.65625 C 340.238281 309.738281 337.894531 313.222656 334.835938 316.222656 C 332.132812 318.898438 329.160156 321.574219 324.476562 321.652344 C 323.398438 321.652344 322.40625 322.625 321.324219 323.113281 C 316.734375 324.894531 311.960938 326.4375 307.457031 328.382812 C 299.171875 331.949219 290.253906 332.515625 281.339844 332.839844 C 277.917969 333.003906 274.40625 332.757812 270.984375 333.003906 C 269.273438 333.082031 267.652344 333.8125 266.03125 334.136719 C 265.308594 334.300781 264.589844 334.21875 263.777344 334.300781 C 262.699219 334.378906 261.617188 334.625 260.535156 334.542969 C 259.457031 334.378906 258.734375 334.054688 258.554688 334.054688 Z M 258.554688 334.054688"/></clipPath></defs><g clip-path="url(#5da0884075)"><g clip-path="url(#ae76258ada)"><path fill-rule="nonzero" fill-opacity="1" d="M 16.300781 36.972656 L 358.628906 36.972656 L 358.628906 338.027344 L 16.300781 338.027344 Z M 16.300781 36.972656" fill="#d0443f"/></g></g></svg>